<?xml version="1.0" standalone="no"?>
<!DOCTYPE svg PUBLIC "-//W3C//DTD SVG 20010904//EN"
 "http://www.w3.org/TR/2001/REC-SVG-20010904/DTD/svg10.dtd">
<svg version="1.0" xmlns="http://www.w3.org/2000/svg"
 width="320.000000pt" height="320.000000pt" viewBox="0 0 320.000000 320.000000"
 preserveAspectRatio="xMidYMid meet">
<metadata>
Created by potrace 1.11, written by Peter Selinger 2001-2013
</metadata>
<g transform="translate(0.000000,320.000000) scale(0.100000,-0.100000)"
fill="#000000" stroke="none">
<path d="M33 3173 c12 -14 29 -33 38 -42 8 -9 42 -49 73 -88 32 -40 62 -73 67
-73 5 0 9 -6 9 -12 0 -7 19 -33 41 -58 22 -25 51 -57 64 -72 14 -16 23 -28 20
-28 -3 0 3 -8 13 -18 18 -20 25 -29 82 -102 19 -25 39 -50 45 -57 14 -17 26
-32 60 -78 16 -22 35 -47 42 -55 7 -8 51 -69 97 -135 47 -66 89 -125 93 -131
14 -19 32 -48 49 -81 9 -18 20 -33 25 -33 5 0 9 -5 9 -11 0 -7 10 -28 22 -48
13 -20 23 -38 23 -41 1 -3 18 -41 39 -84 21 -43 39 -89 40 -100 1 -12 5 -26 8
-31 3 -6 9 -23 13 -40 5 -16 10 -37 13 -45 8 -25 10 -264 2 -275 -3 -5 -15
-41 -25 -80 -17 -71 -87 -226 -133 -300 -14 -22 -25 -45 -25 -52 0 -7 -4 -10
-9 -7 -4 3 -8 1 -8 -3 0 -5 -25 -46 -55 -91 -30 -46 -55 -87 -55 -92 0 -6 -3
-10 -7 -10 -5 0 -19 -17 -33 -38 -14 -20 -29 -42 -35 -48 -5 -6 -17 -22 -25
-34 -8 -12 -21 -28 -27 -36 -7 -7 -13 -15 -13 -17 0 -3 -11 -18 -24 -33 -14
-16 -62 -76 -107 -134 -46 -58 -87 -107 -91 -108 -4 -2 -8 -8 -8 -13 0 -8 -31
-47 -67 -85 -7 -7 -13 -15 -13 -18 0 -3 -15 -21 -32 -41 -18 -19 -37 -40 -43
-47 -31 -41 -111 -134 -120 -140 -5 -4 673 -8 1508 -8 834 1 1517 4 1517 8 0
4 -16 23 -35 42 -19 19 -35 37 -35 42 0 4 -10 18 -22 30 -13 13 -39 44 -60 68
-20 25 -44 55 -55 66 -10 12 -29 36 -43 54 -14 18 -30 38 -35 44 -16 17 -57
69 -85 106 -14 18 -29 38 -35 44 -5 6 -29 37 -53 69 -23 31 -48 57 -54 57 -6
0 -9 3 -5 6 8 8 -83 130 -95 126 -5 -1 -7 1 -4 6 3 5 -6 25 -19 45 -26 37 -31
62 -16 71 12 8 58 107 70 152 49 191 -8 389 -151 526 -49 46 -141 103 -186
115 -33 8 -35 18 -17 81 10 31 19 65 20 74 2 9 9 26 15 37 6 12 7 21 3 21 -4
0 -3 4 2 8 6 4 32 50 58 102 48 95 114 203 195 317 24 34 45 65 45 69 1 5 11
18 22 30 11 12 36 43 55 70 19 27 41 55 48 64 7 8 38 47 68 85 31 39 61 77 67
85 7 8 28 35 47 60 19 25 40 51 48 58 7 8 25 30 40 50 15 20 40 50 55 66 15
17 45 52 65 79 20 26 40 47 44 47 4 0 8 5 8 10 0 6 8 19 18 29 48 53 62 69 62
75 0 3 -704 6 -1565 6 l-1565 0 23 -27z"/>
</g>
</svg>
